<svg version="1.0" xmlns="http://www.w3.org/2000/svg" width="800.000000" height="175.000000" viewBox="0 0 800.000000 175.000000" preserveAspectRatio="xMidYMid meet"><rect x="89" y="71" width="19" height="5" fill="rgb(255,255,255)" /><rect x="143" y="71" width="19" height="5" fill="rgb(255,255,255)" /><rect x="161" y="71" width="19" height="5" fill="rgb(255,255,255)" /><rect x="269" y="71" width="19" height="5" fill="rgb(255,255,255)" /><rect x="287" y="71" width="19" height="5" fill="rgb(255,255,255)" /><rect x="485" y="71" width="19" height="5" fill="rgb(255,255,255)" /><rect x="143" y="75" width="19" height="5" fill="rgb(255,255,255)" /><rect x="161" y="75" width="19" height="5" fill="rgb(255,255,255)" /><rect x="269" y="75" width="19" height="5" fill="rgb(255,255,255)" /><rect x="287" y="75" width="19" height="5" fill="rgb(255,255,255)" /><rect x="485" y="75" width="19" height="5" fill="rgb(255,255,255)" /><rect x="143" y="79" width="19" height="5" fill="rgb(255,255,255)" /><rect x="161" y="79" width="19" height="5" fill="rgb(255,255,255)" /><rect x="269" y="79" width="19" height="5" fill="rgb(255,255,255)" /><rect x="287" y="79" width="19" height="5" fill="rgb(255,255,255)" /><rect x="485" y="79" width="19" height="5" fill="rgb(255,255,255)" /><rect x="485" y="83" width="19" height="5" fill="rgb(255,255,255)" /><rect x="485" y="87" width="19" height="5" fill="rgb(255,255,255)" /><rect x="323" y="91" width="19" height="5" fill="rgb(255,255,255)" /><rect x="341" y="91" width="19" height="5" fill="rgb(255,255,255)" /><rect x="395" y="91" width="19" height="5" fill="rgb(255,255,255)" /><rect x="449" y="91" width="19" height="5" fill="rgb(255,255,255)" /><rect x="485" y="91" width="19" height="5" fill="rgb(255,255,255)" /><rect x="539" y="91" width="19" height="5" fill="rgb(255,255,255)" /><rect x="719" y="91" width="19" height="5" fill="rgb(255,255,255)" /><rect x="323" y="95" width="19" height="5" fill="rgb(255,255,255)" /><rect x="341" y="95" width="19" height="5" fill="rgb(255,255,255)" /><rect x="377" y="95" width="19" height="5" fill="rgb(255,255,255)" /><rect x="395" y="95" width="19" height="5" fill="rgb(255,255,255)" /><rect x="449" y="95" width="19" height="5" fill="rgb(255,255,255)" /><rect x="485" y="95" width="19" height="5" fill="rgb(255,255,255)" /><rect x="539" y="95" width="19" height="5" fill="rgb(255,255,255)" /><rect x="593" y="95" width="19" height="5" fill="rgb(255,255,255)" /><rect x="143" y="99" width="19" height="5" fill="rgb(255,255,255)" /><rect x="161" y="99" width="19" height="5" fill="rgb(255,255,255)" /><rect x="269" y="99" width="19" height="5" fill="rgb(255,255,255)" /><rect x="377" y="99" width="19" height="5" fill="rgb(255,255,255)" /><rect x="395" y="99" width="19" height="5" fill="rgb(255,255,255)" /><rect x="449" y="99" width="19" height="5" fill="rgb(255,255,255)" /><rect x="485" y="99" width="19" height="5" fill="rgb(255,255,255)" /><rect x="521" y="99" width="19" height="5" fill="rgb(255,255,255)" /><rect x="593" y="99" width="19" height="5" fill="rgb(255,255,255)" /><rect x="611" y="99" width="19" height="5" fill="rgb(255,255,255)" /><rect x="701" y="99" width="19" height="5" fill="rgb(255,255,255)" /><rect x="143" y="103" width="19" height="5" fill="rgb(255,255,255)" /><rect x="161" y="103" width="19" height="5" fill="rgb(255,255,255)" /><rect x="269" y="103" width="19" height="5" fill="rgb(255,255,255)" /><rect x="611" y="103" width="19" height="5" fill="rgb(255,255,255)" /><rect x="701" y="103" width="19" height="5" fill="rgb(255,255,255)" /><rect x="143" y="107" width="19" height="5" fill="rgb(255,255,255)" /><rect x="161" y="107" width="19" height="5" fill="rgb(255,255,255)" /><rect x="269" y="107" width="19" height="5" fill="rgb(255,255,255)" /><rect x="341" y="107" width="19" height="5" fill="rgb(255,255,255)" /><rect x="539" y="107" width="19" height="5" fill="rgb(255,255,255)" /><rect x="323" y="111" width="19" height="5" fill="rgb(255,255,255)" /><rect x="341" y="111" width="19" height="5" fill="rgb(255,255,255)" /><rect x="467" y="111" width="19" height="5" fill="rgb(255,255,255)" /><rect x="539" y="111" width="19" height="5" fill="rgb(255,255,255)" /><rect x="719" y="111" width="19" height="5" fill="rgb(255,255,255)" /><rect x="467" y="115" width="19" height="5" fill="rgb(255,255,255)" /><rect x="521" y="115" width="19" height="5" fill="rgb(255,255,255)" /><rect x="719" y="115" width="19" height="5" fill="rgb(255,255,255)" /><rect x="197" y="123" width="19" height="5" fill="rgb(255,255,255)" /><rect x="215" y="123" width="19" height="5" fill="rgb(255,255,255)" /><rect x="647" y="123" width="19" height="5" fill="rgb(255,255,255)" /><rect x="665" y="123" width="19" height="5" fill="rgb(255,255,255)" /><rect x="197" y="127" width="19" height="5" fill="rgb(255,255,255)" /><rect x="215" y="127" width="19" height="5" fill="rgb(255,255,255)" /><rect x="323" y="127" width="19" height="5" fill="rgb(255,255,255)" /><rect x="341" y="127" width="19" height="5" fill="rgb(255,255,255)" /><rect x="521" y="127" width="19" height="5" fill="rgb(255,255,255)" /><rect x="539" y="127" width="19" height="5" fill="rgb(255,255,255)" /><rect x="647" y="127" width="19" height="5" fill="rgb(255,255,255)" /><rect x="665" y="127" width="19" height="5" fill="rgb(255,255,255)" /><rect x="719" y="127" width="19" height="5" fill="rgb(255,255,255)" /><rect x="719" y="131" width="19" height="5" fill="rgb(255,255,255)" /><g transform="translate(0.000000,175.000000) scale(0.100000,-0.100000)" fill="#FFFFFF" stroke="none"><path d="M439 1379 c-22 -23 -29 -41 -29 -70 0 -40 4 -47 53 -99 23 -24 27 -37 27 -83 0 -36 -5 -59 -15 -67 -8 -7 -15 -29 -15 -50 0 -21 7 -43 15 -50 10 -8 15 -30 15 -62 0 -44 -5 -55 -40 -95 -31 -36 -40 -54 -40 -82 0 -28 10 -48 40 -85 50 -60 55 -115 15 -158 -51 -55 -23 -129 49 -131 49 -1 76 26 76 75 0 21 -4 38 -8 38 -15 0 -42 59 -42 93 0 26 8 43 30 64 17 15 30 34 30 40 0 7 5 13 10 13 14 0 12 76 -2 102 -7 12 -25 33 -40 46 -24 20 -28 31 -28 77 0 34 5 57 15 65 20 16 20 84 0 100 -10 8 -15 30 -15 65 0 44 4 56 30 81 16 16 30 33 30 37 0 23 32 37 81 37 42 0 56 -5 75 -25 14 -15 34 -25 52 -25 17 0 38 10 52 25 19 20 33 25 70 25 41 0 52 -5 88 -40 34 -34 47 -40 83 -40 33 0 49 6 71 27 24 23 28 34 28 85 0 79 -19 98 -99 98 -56 0 -60 -2 -92 -40 -29 -34 -40 -40 -75 -40 -30 0 -46 6 -64 25 -18 19 -34 25 -66 25 -33 0 -45 -5 -58 -25 -14 -22 -24 -25 -71 -25 -30 0 -55 5 -55 10 0 6 -12 24 -27 40 -22 26 -33 30 -76 30 -42 0 -53 -4 -78 -31z"/><path d="M169 1363 c-21 -24 -16 -100 7 -118 27 -20 68 -18 95 4 27 22 33 87 10 115 -18 22 -94 22 -112 -1z"/><path d="M153 1095 c-20 -14 -23 -25 -23 -80 0 -57 3 -66 30 -92 17 -15 30 -36 30 -45 0 -10 5 -18 10 -18 6 0 10 -11 10 -25 0 -14 -4 -25 -10 -25 -5 0 -10 -5 -10 -11 0 -7 -7 -17 -14 -23 -15 -11 -21 -40 -18 -81 1 -11 13 -32 27 -47 26 -28 33 -62 15 -73 -6 -3 -10 -13 -10 -22 0 -9 -13 -29 -30 -45 -27 -25 -30 -35 -30 -87 0 -79 13 -91 94 -91 80 0 98 17 98 90 0 43 -5 57 -28 83 -55 61 -69 112 -38 138 26 21 46 68 38 92 -4 12 -17 35 -30 50 -37 44 -31 74 29 145 22 27 27 42 27 85 -1 73 -16 90 -87 95 -42 2 -64 -1 -80 -13z"/><path d="M750 1061 c-5 -11 -10 -34 -10 -51 0 -53 15 -70 64 -70 30 0 48 6 61 20 15 17 31 20 95 20 51 0 82 -5 96 -15 24 -18 63 -19 87 -1 20 16 22 64 3 89 -17 22 -81 23 -90 2 -4 -12 -24 -15 -88 -15 -71 0 -86 3 -101 20 -24 28 -102 28 -117 1z"/><path d="M1340 710 l0 -330 120 0 120 0 0 115 0 115 110 0 110 0 0 80 0 80 -110 0 -110 0 0 55 0 55 140 0 140 0 0 80 0 80 -260 0 -260 0 0 -330z"/><path d="M2550 710 l0 -330 120 0 120 0 0 115 0 115 110 0 110 0 0 80 0 80 -110 0 -110 0 0 55 0 55 140 0 140 0 0 80 0 80 -260 0 -260 0 0 -330z"/><path d="M4350 710 l0 -330 105 0 105 0 1 148 c1 161 0 161 44 7 8 -27 21 -74 30 -102 l17 -53 78 0 c43 0 81 4 84 8 3 5 15 44 27 88 12 43 25 93 30 109 4 17 14 51 21 77 12 42 13 31 10 -118 l-4 -164 106 0 106 0 0 330 0 330 -134 0 -133 0 -15 -42 c-9 -24 -23 -72 -32 -108 -10 -36 -26 -92 -37 -125 -10 -33 -19 -68 -19 -78 0 -31 -19 -8 -26 31 -4 20 -12 53 -19 72 -7 19 -21 64 -30 100 -10 36 -24 84 -33 108 l-15 42 -133 0 -134 0 0 -330z"/><path d="M3275 866 c-86 -21 -135 -68 -135 -131 l0 -25 100 0 c58 0 100 4 100 10 0 17 41 31 71 25 16 -4 29 -13 29 -21 0 -20 -59 -44 -107 -44 -66 -1 -163 -42 -197 -83 -35 -44 -40 -106 -11 -155 42 -70 193 -94 292 -45 40 20 42 20 46 2 5 -17 16 -19 107 -19 94 0 101 1 94 18 -5 9 -11 96 -14 192 -3 99 -10 186 -17 201 -25 58 -110 90 -235 88 -40 0 -95 -6 -123 -13z m165 -314 c0 -41 -30 -64 -77 -60 -33 3 -38 6 -38 27 0 20 8 27 50 41 67 23 65 24 65 -8z"/><path d="M4005 869 c-16 -7 -42 -23 -57 -37 l-28 -26 0 27 0 27 -95 0 -95 0 0 -240 0 -240 105 0 105 0 0 148 c0 132 2 151 18 165 24 22 65 21 85 -1 14 -16 17 -43 17 -165 l0 -147 105 0 105 0 0 133 c0 226 -23 307 -98 343 -45 21 -126 28 -167 13z"/><path d="M5355 870 c-16 -4 -42 -11 -56 -14 -15 -3 -40 -20 -58 -38 -24 -24 -31 -41 -31 -70 l0 -38 90 0 c77 0 93 3 110 20 11 11 29 20 41 20 24 0 59 -17 59 -29 0 -13 -76 -41 -110 -41 -51 0 -157 -41 -189 -72 -17 -17 -32 -42 -33 -57 -4 -57 5 -107 20 -125 49 -55 168 -71 267 -37 45 16 55 17 59 5 4 -11 30 -14 111 -14 58 0 105 3 105 8 0 4 -7 16 -15 26 -12 16 -15 56 -15 194 l0 175 -38 36 c-27 26 -55 40 -91 49 -58 13 -180 15 -226 2z m155 -305 c0 -9 -7 -29 -15 -45 -14 -26 -21 -30 -59 -30 -30 0 -46 5 -50 15 -10 27 5 42 57 58 68 19 67 19 67 2z"/><path d="M6054 862 c-18 -9 -41 -23 -53 -30 -19 -11 -21 -10 -21 8 0 19 -6 20 -95 20 l-95 0 0 -240 0 -240 100 0 100 0 0 130 c0 163 12 200 63 200 56 0 62 -15 65 -182 l4 -148 99 0 99 0 0 178 c-1 228 -16 271 -115 309 -44 17 -115 15 -151 -5z"/><path d="M7131 866 c-24 -7 -61 -28 -82 -47 -37 -34 -39 -38 -39 -99 0 -60 2 -65 35 -96 35 -32 138 -74 180 -74 26 0 65 -27 65 -44 0 -37 -93 -24 -105 13 -6 19 -14 21 -106 21 -99 0 -100 0 -93 -22 12 -42 37 -83 58 -98 96 -70 320 -64 405 11 42 37 58 101 36 149 -21 47 -94 91 -190 115 -73 18 -102 36 -91 54 11 18 54 13 76 -9 17 -17 33 -20 105 -20 85 0 85 0 85 26 0 29 -29 84 -44 84 -5 0 -17 6 -25 14 -38 33 -184 45 -270 22z"/><path d="M1922 678 c4 -204 10 -225 73 -274 61 -46 170 -46 239 1 l36 24 0 -24 c0 -25 1 -25 95 -25 l95 0 0 240 0 240 -99 0 -99 0 -4 -137 c-3 -89 -9 -148 -18 -166 -26 -53 -92 -44 -104 14 -3 17 -6 89 -6 160 l0 129 -106 0 -106 0 4 -182z"/><path d="M6390 695 c0 -220 15 -267 102 -308 66 -31 179 -17 230 30 17 15 18 14 18 -10 l0 -27 95 0 95 0 0 240 0 240 -100 0 -100 0 0 -117 c0 -165 -20 -223 -74 -223 -49 0 -56 24 -56 188 l0 152 -105 0 -105 0 0 -165z"/><path d="M1064 820 c-26 -10 -62 -55 -70 -87 -8 -29 16 -81 50 -111 20 -17 26 -31 26 -62 0 -22 -4 -40 -9 -40 -6 0 -23 -14 -40 -32 -25 -27 -38 -32 -90 -36 -87 -6 -91 0 -91 118 0 75 4 100 15 110 21 17 19 56 -5 80 -21 21 -32 23 -67 14 -20 -5 -23 -13 -23 -51 0 -26 6 -51 15 -59 22 -22 22 -182 0 -190 -10 -4 -15 -21 -15 -54 0 -42 3 -49 24 -54 28 -7 76 8 76 24 0 15 83 12 115 -4 14 -8 35 -23 46 -35 16 -17 32 -21 83 -21 57 0 65 3 80 25 36 55 6 165 -45 165 -15 0 -19 7 -19 33 1 24 11 42 40 72 35 35 40 46 40 88 0 61 -13 85 -55 103 -39 16 -51 16 -81 4z"/></g></svg>